inDegrees=no
num_controls=7
num_derivatives=13
num_iterations=32
num_multipliers=7
num_parameters=0
num_slacks=7
num_states=26
objective=0.434210
objective_accelerations=0.043186
objective_balance=0.001123
objective_effort=0.012105
objective_height=0.371391
objective_ligament=0.006406
solver_duration=488.976353
status=Solve_Succeeded
success=true
DataType=double
version=3
OpenSimVersion=4.5
endheader
time	/jointset/ground_pelvis/pelvis_tilt/value	/jointset/ground_pelvis/pelvis_tx/value	/jointset/ground_pelvis/pelvis_ty/value	/jointset/hip_l/hip_flexion_l/value	/jointset/hip_l/hip_adduction_l/value	/jointset/hip_l/hip_rotation_l/value	/jointset/back/lumbar_extension/value	/jointset/patellofemoral_l/patellar_flexion_l/value	/jointset/knee_l/knee_flexion_l/value	/jointset/knee_l/knee_adduction_l/value	/jointset/knee_l/knee_rotation_l/value	/jointset/ankle_l/ankle_angle_l/value	/jointset/subtalar_l/subtalar_angle_l/value	/jointset/ground_pelvis/pelvis_tilt/speed	/jointset/ground_pelvis/pelvis_tx/speed	/jointset/ground_pelvis/pelvis_ty/speed	/jointset/hip_l/hip_flexion_l/speed	/jointset/hip_l/hip_adduction_l/speed	/jointset/hip_l/hip_rotation_l/speed	/jointset/back/lumbar_extension/speed	/jointset/patellofemoral_l/patellar_flexion_l/speed	/jointset/knee_l/knee_flexion_l/speed	/jointset/knee_l/knee_adduction_l/speed	/jointset/knee_l/knee_rotation_l/speed	/jointset/ankle_l/ankle_angle_l/speed	/jointset/subtalar_l/subtalar_angle_l/speed	/forceset/tau_hip_flexion_l	/forceset/tau_hip_adduction_l	/forceset/tau_hip_rotation_l	/forceset/tau_knee_flexion_l	/forceset/tau_ankle_angle_l	/forceset/tau_subtalar_angle_l	/forceset/tau_lumbar_extension	lambda_cid13_p0	lambda_cid13_p1	lambda_cid13_p2	lambda_cid13_p3	lambda_cid13_p4	lambda_cid13_p5	lambda_cid14_p0	/jointset/ground_pelvis/pelvis_tilt/accel	/jointset/ground_pelvis/pelvis_tx/accel	/jointset/ground_pelvis/pelvis_ty/accel	/jointset/hip_l/hip_flexion_l/accel	/jointset/hip_l/hip_adduction_l/accel	/jointset/hip_l/hip_rotation_l/accel	/jointset/back/lumbar_extension/accel	/jointset/patellofemoral_l/patellar_flexion_l/accel	/jointset/knee_l/knee_flexion_l/accel	/jointset/knee_l/knee_adduction_l/accel	/jointset/knee_l/knee_rotation_l/accel	/jointset/ankle_l/ankle_angle_l/accel	/jointset/subtalar_l/subtalar_angle_l/accel	gamma_cid13_p0	gamma_cid13_p1	gamma_cid13_p2	gamma_cid13_p3	gamma_cid13_p4	gamma_cid13_p5	gamma_cid14_p0
0.5	-0.1176396927968677	0.05954754936128634	0.8082964813928654	0.7636512436239691	-0.3724602091191166	-0.02856668813190614	-0.3896850175365493	0.8406312252010518	0.840631225201084	-0.06791040915933931	-0.1742305884039889	0.3122529850435324	0.1509195753240398	-0.4989752446002666	-0.1195968215437285	-0.3709751525940417	1.778311507546055	0.001590193938787799	0.5003895518925054	-0.3272124413926221	1.669101934352036	1.669101934352048	0.1965697381096221	-0.008507824699242852	0.5284176032893299	0.2142882422193322	-0.06683712572906381	0.08072936743326357	0.005605236490776165	-0.2046798445576715	0.008459023524247322	-0.02879425927598868	0.09446945848184128	-25.89507803749462	21.95375784556637	-9.394432801463685	3.522701996451473	-448.0154723211834	-22.05800526273121	-9.561354978977151	0.03370695558922546	0.180531444454112	-0.2923417715767817	-0.8481785237845479	0.1453931496672232	-0.3877157935864727	1.154021350509874	-1.482799700264356	-1.482799700264356	-0.3591884727262662	0.2063582964070211	-0.8002898413982437	0.1018306349988415	-1.167850325852373e-07	-2.075738923474364e-06	1.21839574039798e-06	-2.065312873880472e-07	-3.111108348341624e-07	-1.658061914017287e-06	-2.969352733538648e-07
0.51	-0.1226266010554335	0.05836086214359091	0.8045730048100762	0.7813884795247135	-0.3724382157718755	-0.02358355049660494	-0.392899559448152	0.8572452445467726	0.8572452445468119	-0.06596452381418065	-0.1743076746047395	0.3174960489209296	0.153065479203049	-0.4983435345554736	-0.1177191385379584	-0.3736351073644759	1.768883776594409	0.002802362327008851	0.4961747404115415	-0.3156524616610998	1.653462505889395	1.65346250588941	0.1925990795188036	-0.006927913599655678	0.5201285698178846	0.2148520257479264	-0.07012509184871017	0.08232158481886651	0.005082174973745157	-0.2066439877486055	0.007226276214747308	-0.02793614083101038	0.09712523496516649	-26.40113871116105	21.85270518022192	-9.587376035020108	3.555680557126654	-450.2762020421931	-21.99427773442815	-8.868798772425235	0.08731674281550243	0.1945702607491023	-0.2401263409058292	-1.027874183556543	0.1081763020794532	-0.4481364300001622	1.163508174345975	-1.64036958752383	-1.64036958752343	-0.417486318818619	0.1312047800525593	-0.8532816648801158	0.02774028324859845	-1.243572367142442e-07	-2.086169118849205e-06	1.309994721676403e-06	-2.050066784965146e-07	-3.201213262999577e-07	-1.695325542136362e-06	-3.091377531553853e-07
0.52	-0.1276053094707646	0.05719358846237493	0.8008254678773573	0.7990238773554095	-0.3724042912170134	-0.01864451549704665	-0.3959971971844615	0.8736956985742038	0.8736956985742719	-0.06405864140818904	-0.1743694822418498	0.3226542081506419	0.1552158385316361	-0.4973352759550405	-0.1157141142478393	-0.3757872225800261	1.757943893534675	0.003976435462423296	0.4915690247446193	-0.3038316063346641	1.63638887069637	1.636388870696388	0.1885691502656252	-0.005452111967354296	0.5114366737519482	0.2151793321348768	-0.07341305796832076	0.08391380220445981	0.004559113456970041	-0.2086081309395356	0.005993528905246142	-0.0270780223860499	0.09978101144852902	-26.90779794996194	21.74655924776778	-9.773569359678179	3.580074109140862	-452.5474379029632	-21.98199541272576	-8.181853138834134	0.1090166667171475	0.2059997013239339	-0.1907738605999791	-1.150608945402102	0.137774099105975	-0.4658966307779828	1.206196469492509	-1.769641046340944	-1.769641046340945	-0.371042605198236	0.1855364029500626	-0.8808623602963472	0.0545352066701883	-1.343924385624984e-07	-2.276067946523112e-06	1.412908907641613e-06	-2.253596014928246e-07	-3.355090368808181e-07	-1.836405188403705e-06	-3.360147407674395e-07
0.53	-0.1325720484982776	0.05604696824910959	0.7970589828381823	0.8165423605471521	-0.3723590245257573	-0.0137540161739929	-0.3989755412703667	0.889968329409871	0.8899683294099201	-0.06219328066524496	-0.1744178073168592	0.327723430748276	0.1573679456589678	-0.4959543353336209	-0.1135918211031725	-0.3774223088684583	1.745513911891847	0.005075022133131223	0.486431229516218	-0.2918088760943156	1.617911799655414	1.61791179965543	0.1845367976471408	-0.004250095056504108	0.5023493193925895	0.2152077263486632	-0.07658973011845899	0.08534193055508431	0.004016887253551112	-0.2107520541346135	0.004947313723871986	-0.02629918888117446	0.1023316759622048	-27.36543682797301	21.67385375201039	-9.973764229732351	3.594463368302942	-454.867406383202	-21.94267717458036	-7.516354518327685	0.1613412482367503	0.2180130063935134	-0.1368232732659002	-1.325040590370968	0.09557531737308921	-0.5530035383360824	1.204561513989438	-1.92049462376153	-1.920494623762013	-0.4145570873932152	0.08214996339822674	-0.9315500556597196	-0.02796353008735524	-1.578866744577587e-07	-2.079987686900756e-06	1.74520936146138e-06	-1.82188165399522e-07	-3.865774936590801e-07	-1.808087919848474e-06	-3.639551379672784e-07
0.54	-0.1375232364218913	0.05492210474436161	0.7932787574840632	0.8339293743591459	-0.372302837094528	-0.008917951317116809	-0.4018328080113282	0.906049438636965	0.9060494386370036	-0.06036728854792897	-0.1744551890971084	0.3327000041859349	0.1595193457166734	-0.494225055176915	-0.1113627725443708	-0.3785352855688834	1.731650017583095	0.006160583456625178	0.4806821315092179	-0.2796161373466191	1.598084548982922	1.598084548982935	0.1806954251398721	-0.003263453015833467	0.4929068417570741	0.2150379182096408	-0.07976640226855185	0.08677005890572505	0.003474661050168422	-0.2128959773296752	0.003901098542506842	-0.02552035537627298	0.1048823404759217	-27.8218569266528	21.59096180239194	-10.16094291150881	3.59384749389142	-457.1795306678169	-21.96627490350236	-6.885536162916867	0.1786845737743415	0.2273507841509512	-0.08635194299852489	-1.43739147858674	0.1351690296632575	-0.5881571864975489	1.240198170962078	-2.039676972648125	-2.039676972648152	-0.3328465829550833	0.1424614289143901	-0.9518870155276377	0.014894736108522	-1.962717565326853e-07	-1.456866734950616e-06	2.331298877588319e-06	-6.873445967515785e-08	-4.771225206982976e-07	-1.592352788085285e-06	-3.930720734344537e-07
0.55	-0.1424554016087823	0.05382004556258302	0.7894900171794902	0.851170673049236	-0.3722361558259514	-0.004139348425239923	-0.4045673922618462	0.9219256233208638	0.9219256233208643	-0.05858140079814489	-0.174482158279486	0.3375803853997624	0.1616675279211384	-0.4921471646285568	-0.1090331782720781	-0.3791238075991373	1.716374650972177	0.007168469620866515	0.4749440271837618	-0.2672856697002014	1.576941784329152	1.576941784329153	0.1765051964920161	-0.002176456459396868	0.48311892525008	0.2145564206689966	-0.08288062496206094	0.08804135456452805	0.002926371391755865	-0.2151354417517183	0.00295651674759529	-0.02482719327661753	0.1073630776347448	-28.25535508921932	21.54545381657534	-10.35886894830741	3.600403254823133	-459.5137603141104	-21.93227453993057	-6.289599170205265	0.2314439011440596	0.2381452095469743	-0.03186247318305842	-1.607898110031814	0.08218127678447834	-0.5811857364897657	1.231727519901001	-2.183084940922914	-2.183084940924696	-0.4587516568591129	0.08536021580546301	-0.9998663428775831	-0.08612682856536505	-2.145127777740162e-07	-1.01667724435022e-06	2.650194241311986e-06	5.740247109482032e-09	-5.190061778291318e-07	-1.39300492914249e-06	-4.03020294396492e-07
0.5600000000000001	-0.1473649673690246	0.05274175861568265	0.7856980396265861	0.8682521603016881	-0.3721596791223325	0.0005789636871952219	-0.4071782205442128	0.9375840786123768	0.9375840786123616	-0.05683674346502216	-0.1744995492069845	0.342361362973602	0.1638096041843141	-0.4897051698491059	-0.1066083255687262	-0.3791827352351147	1.699687730053747	0.00811967046429512	0.4686239756214925	-0.2548649437169961	1.554538670508131	1.554538670508121	0.1724493417978307	-0.001347802031083846	0.4730261137594	0.2138167299517719	-0.08599484765553733	0.08931265022333727	0.002378081733596954	-0.2173749061737533	0.002011934952687419	-0.02413403117695899	0.1098438147935998	-28.68747687139787	21.49054632929408	-10.54483388051198	3.584353137258182	-461.8401919274509	-21.97552248399264	-5.728460398460663	0.2515054199927909	0.2464024703628114	0.01956693585674878	-1.719702340089199	0.1238319655007977	-0.7045466338600626	1.258249838319575	-2.291746806098206	-2.291746806098224	-0.3059717922209605	0.0907930032899084	-1.012866012264835	-0.0367438992074508	-2.085809260150329e-07	-7.960055073695104e-07	2.648456622151738e-06	3.344015516645436e-08	-5.024961910699084e-07	-1.213321797584167e-06	-3.899660579523666e-07
0.5700000000000001	-0.1522484035307099	0.05168815685691433	0.7819081071125472	0.8851600138448779	-0.3720739030600577	0.005232012608125845	-0.4096644218784684	0.9530124373826254	0.9530124373826283	-0.05513237791409695	-0.1745093782225684	0.3470400014902651	0.1659430613254606	-0.486922504080557	-0.1040994894071372	-0.3787146999961798	1.681657891437526	0.009026023063051801	0.4619154961197044	-0.2423736613428906	1.530936702527319	1.530936702527314	0.1684308806973802	-0.0006502954736027804	0.4626575218769048	0.2128286835722215	-0.08902490240515692	0.09041211922879912	0.001883570700097359	-0.2197070903395781	0.001152752525938547	-0.02354197810926405	0.112230849777241	-29.10263014633854	21.48311735765368	-10.74583737191046	3.595615126048615	-464.1543604260725	-21.95853029378881	-5.201715904895066	0.3005636974542366	0.2550145274671247	0.07368332294509962	-1.878413606381065	0.07223851892328553	-0.664898189058681	1.244816705570506	-2.423802429623497	-2.423802429623038	-0.4487683080380468	0.05485333183078255	-1.055499457152384	-0.1369467910622219	-1.997470089934858e-07	-6.008281441397783e-07	2.606539811032168e-06	5.56305587201091e-08	-4.798242521355377e-07	-1.038349252807175e-06	-3.736699796143711e-07
